<mxfile host="app.diagrams.net" modified="2023-04-10T10:56:14.188Z" agent="Mozilla/5.0 (Windows NT 10.0; Win64; x64) AppleWebKit/537.36 (KHTML, like Gecko) Chrome/111.0.0.0 Safari/537.36" etag="ENOsNrconSRXw7gmJzvH" version="21.1.4" type="github">
  <diagram name="Page-1" id="b98fa263-6416-c6ec-5b7d-78bf54ef71d0">
    <mxGraphModel dx="2206" dy="2402" grid="1" gridSize="10" guides="1" tooltips="1" connect="1" arrows="1" fold="1" page="1" pageScale="1.5" pageWidth="1169" pageHeight="826" background="none" math="0" shadow="0">
      <root>
        <mxCell id="0" style=";html=1;" />
        <mxCell id="1" style=";html=1;" parent="0" />
        <mxCell id="w0nPLynQn5txn0c__vby-64" value="" style="ellipse;whiteSpace=wrap;html=1;opacity=12;sketch=1;curveFitting=1;jiggle=2;" vertex="1" parent="1">
          <mxGeometry x="900" y="-374.5" width="1400" height="999" as="geometry" />
        </mxCell>
        <mxCell id="w0nPLynQn5txn0c__vby-1" value="CSO" style="whiteSpace=wrap;html=1;rounded=1;shadow=1;strokeWidth=1;fontSize=16;align=center;fillColor=#f5f5f5;strokeColor=#666666;" vertex="1" parent="1">
          <mxGeometry x="480" y="140" width="275" height="40" as="geometry" />
        </mxCell>
        <mxCell id="w0nPLynQn5txn0c__vby-2" value="" style="ellipse;whiteSpace=wrap;html=1;aspect=fixed;" vertex="1" parent="1">
          <mxGeometry x="900" y="490" width="80" height="80" as="geometry" />
        </mxCell>
        <mxCell id="w0nPLynQn5txn0c__vby-3" value="CSO" style="whiteSpace=wrap;html=1;rounded=1;shadow=1;strokeWidth=1;fontSize=16;align=center;fillColor=#f5f5f5;strokeColor=#666666;" vertex="1" parent="1">
          <mxGeometry x="500" y="680" width="275" height="40" as="geometry" />
        </mxCell>
        <mxCell id="w0nPLynQn5txn0c__vby-4" value="CSO" style="whiteSpace=wrap;html=1;rounded=1;shadow=1;strokeWidth=1;fontSize=16;align=center;fillColor=#f5f5f5;strokeColor=#666666;" vertex="1" parent="1">
          <mxGeometry x="500" y="760" width="275" height="40" as="geometry" />
        </mxCell>
        <mxCell id="w0nPLynQn5txn0c__vby-5" value="CSO" style="whiteSpace=wrap;html=1;rounded=1;shadow=1;strokeWidth=1;fontSize=16;align=center;fillColor=#f5f5f5;strokeColor=#666666;" vertex="1" parent="1">
          <mxGeometry x="170" y="30" width="275" height="40" as="geometry" />
        </mxCell>
        <mxCell id="w0nPLynQn5txn0c__vby-6" value="CSO" style="whiteSpace=wrap;html=1;rounded=1;shadow=1;strokeWidth=1;fontSize=16;align=center;fillColor=#f5f5f5;strokeColor=#666666;" vertex="1" parent="1">
          <mxGeometry x="170" y="110" width="275" height="40" as="geometry" />
        </mxCell>
        <mxCell id="w0nPLynQn5txn0c__vby-7" value="CSO" style="whiteSpace=wrap;html=1;rounded=1;shadow=1;strokeWidth=1;fontSize=16;align=center;fillColor=#f5f5f5;strokeColor=#666666;" vertex="1" parent="1">
          <mxGeometry x="170" y="190" width="275" height="40" as="geometry" />
        </mxCell>
        <mxCell id="w0nPLynQn5txn0c__vby-8" value="CSO" style="whiteSpace=wrap;html=1;rounded=1;shadow=1;strokeWidth=1;fontSize=16;align=center;fillColor=#f5f5f5;strokeColor=#666666;" vertex="1" parent="1">
          <mxGeometry x="170" y="270" width="275" height="40" as="geometry" />
        </mxCell>
        <mxCell id="w0nPLynQn5txn0c__vby-9" value="CSO" style="whiteSpace=wrap;html=1;rounded=1;shadow=1;strokeWidth=1;fontSize=16;align=center;fillColor=#f5f5f5;strokeColor=#666666;" vertex="1" parent="1">
          <mxGeometry x="170" y="680" width="275" height="40" as="geometry" />
        </mxCell>
        <mxCell id="w0nPLynQn5txn0c__vby-10" value="CSO" style="whiteSpace=wrap;html=1;rounded=1;shadow=1;strokeWidth=1;fontSize=16;align=center;fillColor=#f5f5f5;strokeColor=#666666;" vertex="1" parent="1">
          <mxGeometry x="170" y="760" width="275" height="40" as="geometry" />
        </mxCell>
        <mxCell id="w0nPLynQn5txn0c__vby-11" value="CSO" style="whiteSpace=wrap;html=1;rounded=1;shadow=1;strokeWidth=1;fontSize=16;align=center;fillColor=#f5f5f5;strokeColor=#666666;" vertex="1" parent="1">
          <mxGeometry x="170" y="840" width="275" height="40" as="geometry" />
        </mxCell>
        <mxCell id="w0nPLynQn5txn0c__vby-12" value="CSO" style="whiteSpace=wrap;html=1;rounded=1;shadow=1;strokeWidth=1;fontSize=16;align=center;fillColor=#f5f5f5;strokeColor=#666666;" vertex="1" parent="1">
          <mxGeometry x="110" y="2090.5" width="275" height="40" as="geometry" />
        </mxCell>
        <mxCell id="w0nPLynQn5txn0c__vby-13" value="CSO" style="whiteSpace=wrap;html=1;rounded=1;shadow=1;strokeWidth=1;fontSize=16;align=center;fillColor=#f5f5f5;strokeColor=#666666;" vertex="1" parent="1">
          <mxGeometry x="1800" y="330" width="275" height="40" as="geometry" />
        </mxCell>
        <mxCell id="w0nPLynQn5txn0c__vby-14" value="CSO" style="whiteSpace=wrap;html=1;rounded=1;shadow=1;strokeWidth=1;fontSize=16;align=center;fillColor=#f5f5f5;strokeColor=#666666;" vertex="1" parent="1">
          <mxGeometry x="1800" y="380" width="275" height="40" as="geometry" />
        </mxCell>
        <mxCell id="w0nPLynQn5txn0c__vby-15" value="CSO" style="whiteSpace=wrap;html=1;rounded=1;shadow=1;strokeWidth=1;fontSize=16;align=center;fillColor=#f5f5f5;strokeColor=#666666;" vertex="1" parent="1">
          <mxGeometry x="1800" y="448" width="275" height="40" as="geometry" />
        </mxCell>
        <mxCell id="w0nPLynQn5txn0c__vby-16" value="CSO" style="whiteSpace=wrap;html=1;rounded=1;shadow=1;strokeWidth=1;fontSize=16;align=center;fillColor=#f5f5f5;strokeColor=#666666;" vertex="1" parent="1">
          <mxGeometry x="1800" y="499" width="275" height="40" as="geometry" />
        </mxCell>
        <mxCell id="w0nPLynQn5txn0c__vby-17" value="CSO" style="whiteSpace=wrap;html=1;rounded=1;shadow=1;strokeWidth=1;fontSize=16;align=center;fillColor=#f5f5f5;strokeColor=#666666;" vertex="1" parent="1">
          <mxGeometry x="1800" y="550" width="275" height="40" as="geometry" />
        </mxCell>
        <mxCell id="w0nPLynQn5txn0c__vby-18" value="CSO" style="whiteSpace=wrap;html=1;rounded=1;shadow=1;strokeWidth=1;fontSize=16;align=center;fillColor=#f5f5f5;strokeColor=#666666;" vertex="1" parent="1">
          <mxGeometry x="1090" y="660" width="275" height="40" as="geometry" />
        </mxCell>
        <mxCell id="w0nPLynQn5txn0c__vby-19" value="CSO" style="whiteSpace=wrap;html=1;rounded=1;shadow=1;strokeWidth=1;fontSize=16;align=center;fillColor=#f5f5f5;strokeColor=#666666;" vertex="1" parent="1">
          <mxGeometry x="1400" y="712.5" width="275" height="40" as="geometry" />
        </mxCell>
        <mxCell id="w0nPLynQn5txn0c__vby-20" value="CSO" style="whiteSpace=wrap;html=1;rounded=1;shadow=1;strokeWidth=1;fontSize=16;align=center;fillColor=#f5f5f5;strokeColor=#666666;" vertex="1" parent="1">
          <mxGeometry x="1400" y="662.5" width="275" height="40" as="geometry" />
        </mxCell>
        <mxCell id="w0nPLynQn5txn0c__vby-21" value="CSO" style="whiteSpace=wrap;html=1;rounded=1;shadow=1;strokeWidth=1;fontSize=16;align=center;fillColor=#f5f5f5;strokeColor=#666666;" vertex="1" parent="1">
          <mxGeometry x="1400" y="607.5" width="275" height="40" as="geometry" />
        </mxCell>
        <mxCell id="w0nPLynQn5txn0c__vby-22" value="Git" style="text;html=1;strokeColor=none;fillColor=none;align=center;verticalAlign=middle;whiteSpace=wrap;rounded=0;" vertex="1" parent="1">
          <mxGeometry x="1210" y="590" width="60" height="30" as="geometry" />
        </mxCell>
        <mxCell id="w0nPLynQn5txn0c__vby-23" value="Consepts How internet work" style="text;html=1;strokeColor=none;fillColor=none;align=center;verticalAlign=middle;whiteSpace=wrap;rounded=0;" vertex="1" parent="1">
          <mxGeometry x="230" y="2021.5" width="60" height="30" as="geometry" />
        </mxCell>
        <mxCell id="w0nPLynQn5txn0c__vby-24" value="CSO" style="whiteSpace=wrap;html=1;rounded=1;shadow=1;strokeWidth=1;fontSize=16;align=center;fillColor=#f5f5f5;strokeColor=#666666;" vertex="1" parent="1">
          <mxGeometry x="1102.5" y="340" width="275" height="40" as="geometry" />
        </mxCell>
        <mxCell id="w0nPLynQn5txn0c__vby-25" value="DB on teory hidden&lt;br&gt;" style="text;html=1;strokeColor=none;fillColor=none;align=center;verticalAlign=middle;whiteSpace=wrap;rounded=0;" vertex="1" parent="1">
          <mxGeometry x="1210" y="270" width="60" height="30" as="geometry" />
        </mxCell>
        <mxCell id="w0nPLynQn5txn0c__vby-26" value="CSO" style="whiteSpace=wrap;html=1;rounded=1;shadow=1;strokeWidth=1;fontSize=16;align=center;fillColor=#f5f5f5;strokeColor=#666666;" vertex="1" parent="1">
          <mxGeometry x="420" y="1990" width="275" height="40" as="geometry" />
        </mxCell>
        <mxCell id="w0nPLynQn5txn0c__vby-27" value="CSO" style="whiteSpace=wrap;html=1;rounded=1;shadow=1;strokeWidth=1;fontSize=16;align=center;fillColor=#f5f5f5;strokeColor=#666666;" vertex="1" parent="1">
          <mxGeometry x="420" y="2040" width="275" height="40" as="geometry" />
        </mxCell>
        <mxCell id="w0nPLynQn5txn0c__vby-28" value="CSO" style="whiteSpace=wrap;html=1;rounded=1;shadow=1;strokeWidth=1;fontSize=16;align=center;fillColor=#f5f5f5;strokeColor=#666666;" vertex="1" parent="1">
          <mxGeometry x="420" y="2089" width="275" height="40" as="geometry" />
        </mxCell>
        <mxCell id="w0nPLynQn5txn0c__vby-29" value="CSO" style="whiteSpace=wrap;html=1;rounded=1;shadow=1;strokeWidth=1;fontSize=16;align=center;fillColor=#f5f5f5;strokeColor=#666666;" vertex="1" parent="1">
          <mxGeometry x="420" y="2140" width="275" height="40" as="geometry" />
        </mxCell>
        <mxCell id="w0nPLynQn5txn0c__vby-30" value="CSO" style="whiteSpace=wrap;html=1;rounded=1;shadow=1;strokeWidth=1;fontSize=16;align=center;fillColor=#f5f5f5;strokeColor=#666666;" vertex="1" parent="1">
          <mxGeometry x="420" y="2191" width="275" height="40" as="geometry" />
        </mxCell>
        <mxCell id="w0nPLynQn5txn0c__vby-31" value="More teoretical desc on Parent open&lt;br&gt;" style="text;html=1;strokeColor=none;fillColor=none;align=center;verticalAlign=middle;whiteSpace=wrap;rounded=0;" vertex="1" parent="1">
          <mxGeometry x="900" y="190" width="60" height="30" as="geometry" />
        </mxCell>
        <mxCell id="w0nPLynQn5txn0c__vby-32" value="CSO" style="whiteSpace=wrap;html=1;rounded=1;shadow=1;strokeWidth=1;fontSize=16;align=center;fillColor=#f5f5f5;strokeColor=#666666;" vertex="1" parent="1">
          <mxGeometry x="1450" y="397" width="275" height="40" as="geometry" />
        </mxCell>
        <mxCell id="w0nPLynQn5txn0c__vby-33" value="CSO" style="whiteSpace=wrap;html=1;rounded=1;shadow=1;strokeWidth=1;fontSize=16;align=center;fillColor=#f5f5f5;strokeColor=#666666;" vertex="1" parent="1">
          <mxGeometry x="1450" y="448" width="275" height="40" as="geometry" />
        </mxCell>
        <mxCell id="w0nPLynQn5txn0c__vby-34" value="CSO" style="whiteSpace=wrap;html=1;rounded=1;shadow=1;strokeWidth=1;fontSize=16;align=center;fillColor=#f5f5f5;strokeColor=#666666;" vertex="1" parent="1">
          <mxGeometry x="1090" y="880" width="275" height="40" as="geometry" />
        </mxCell>
        <mxCell id="w0nPLynQn5txn0c__vby-35" value="CSO" style="whiteSpace=wrap;html=1;rounded=1;shadow=1;strokeWidth=1;fontSize=16;align=center;fillColor=#f5f5f5;strokeColor=#666666;" vertex="1" parent="1">
          <mxGeometry x="1400" y="932.5" width="275" height="40" as="geometry" />
        </mxCell>
        <mxCell id="w0nPLynQn5txn0c__vby-36" value="CSO" style="whiteSpace=wrap;html=1;rounded=1;shadow=1;strokeWidth=1;fontSize=16;align=center;fillColor=#f5f5f5;strokeColor=#666666;" vertex="1" parent="1">
          <mxGeometry x="1400" y="882.5" width="275" height="40" as="geometry" />
        </mxCell>
        <mxCell id="w0nPLynQn5txn0c__vby-37" value="CSO" style="whiteSpace=wrap;html=1;rounded=1;shadow=1;strokeWidth=1;fontSize=16;align=center;fillColor=#f5f5f5;strokeColor=#666666;" vertex="1" parent="1">
          <mxGeometry x="1400" y="827.5" width="275" height="40" as="geometry" />
        </mxCell>
        <mxCell id="w0nPLynQn5txn0c__vby-38" value="OS" style="text;html=1;strokeColor=none;fillColor=none;align=center;verticalAlign=middle;whiteSpace=wrap;rounded=0;" vertex="1" parent="1">
          <mxGeometry x="1210" y="810" width="60" height="30" as="geometry" />
        </mxCell>
        <mxCell id="w0nPLynQn5txn0c__vby-39" value="CSO" style="whiteSpace=wrap;html=1;rounded=1;shadow=1;strokeWidth=1;fontSize=16;align=center;fillColor=#f5f5f5;strokeColor=#666666;" vertex="1" parent="1">
          <mxGeometry x="1440" y="-271" width="275" height="40" as="geometry" />
        </mxCell>
        <mxCell id="w0nPLynQn5txn0c__vby-40" value="CSO" style="whiteSpace=wrap;html=1;rounded=1;shadow=1;strokeWidth=1;fontSize=16;align=center;fillColor=#f5f5f5;strokeColor=#666666;" vertex="1" parent="1">
          <mxGeometry x="1800" y="-370" width="275" height="40" as="geometry" />
        </mxCell>
        <mxCell id="w0nPLynQn5txn0c__vby-41" value="CSO" style="whiteSpace=wrap;html=1;rounded=1;shadow=1;strokeWidth=1;fontSize=16;align=center;fillColor=#f5f5f5;strokeColor=#666666;" vertex="1" parent="1">
          <mxGeometry x="1800" y="-320" width="275" height="40" as="geometry" />
        </mxCell>
        <mxCell id="w0nPLynQn5txn0c__vby-42" value="CSO" style="whiteSpace=wrap;html=1;rounded=1;shadow=1;strokeWidth=1;fontSize=16;align=center;fillColor=#f5f5f5;strokeColor=#666666;" vertex="1" parent="1">
          <mxGeometry x="1800" y="-271" width="275" height="40" as="geometry" />
        </mxCell>
        <mxCell id="w0nPLynQn5txn0c__vby-43" value="CSO" style="whiteSpace=wrap;html=1;rounded=1;shadow=1;strokeWidth=1;fontSize=16;align=center;fillColor=#f5f5f5;strokeColor=#666666;" vertex="1" parent="1">
          <mxGeometry x="1800" y="-220" width="275" height="40" as="geometry" />
        </mxCell>
        <mxCell id="w0nPLynQn5txn0c__vby-44" value="CSO" style="whiteSpace=wrap;html=1;rounded=1;shadow=1;strokeWidth=1;fontSize=16;align=center;fillColor=#f5f5f5;strokeColor=#666666;" vertex="1" parent="1">
          <mxGeometry x="1800" y="-169" width="275" height="40" as="geometry" />
        </mxCell>
        <mxCell id="w0nPLynQn5txn0c__vby-46" value="DB advansed concepts&lt;br&gt;" style="text;html=1;strokeColor=none;fillColor=none;align=center;verticalAlign=middle;whiteSpace=wrap;rounded=0;" vertex="1" parent="1">
          <mxGeometry x="1520" y="-350" width="60" height="30" as="geometry" />
        </mxCell>
        <mxCell id="w0nPLynQn5txn0c__vby-47" value="CSO" style="whiteSpace=wrap;html=1;rounded=1;shadow=1;strokeWidth=1;fontSize=16;align=center;fillColor=#f5f5f5;strokeColor=#666666;" vertex="1" parent="1">
          <mxGeometry x="1450" y="60" width="275" height="40" as="geometry" />
        </mxCell>
        <mxCell id="w0nPLynQn5txn0c__vby-48" value="CSO" style="whiteSpace=wrap;html=1;rounded=1;shadow=1;strokeWidth=1;fontSize=16;align=center;fillColor=#f5f5f5;strokeColor=#666666;" vertex="1" parent="1">
          <mxGeometry x="1800" y="105" width="275" height="40" as="geometry" />
        </mxCell>
        <mxCell id="w0nPLynQn5txn0c__vby-49" value="CSO" style="whiteSpace=wrap;html=1;rounded=1;shadow=1;strokeWidth=1;fontSize=16;align=center;fillColor=#f5f5f5;strokeColor=#666666;" vertex="1" parent="1">
          <mxGeometry x="1800" y="55" width="275" height="40" as="geometry" />
        </mxCell>
        <mxCell id="w0nPLynQn5txn0c__vby-50" value="CSO" style="whiteSpace=wrap;html=1;rounded=1;shadow=1;strokeWidth=1;fontSize=16;align=center;fillColor=#f5f5f5;strokeColor=#666666;" vertex="1" parent="1">
          <mxGeometry x="1800" width="275" height="40" as="geometry" />
        </mxCell>
        <mxCell id="w0nPLynQn5txn0c__vby-51" value="Scaling DB" style="text;html=1;strokeColor=none;fillColor=none;align=center;verticalAlign=middle;whiteSpace=wrap;rounded=0;" vertex="1" parent="1">
          <mxGeometry x="1570" y="-10" width="60" height="30" as="geometry" />
        </mxCell>
        <mxCell id="w0nPLynQn5txn0c__vby-54" value="CSO" style="whiteSpace=wrap;html=1;rounded=1;shadow=1;strokeWidth=1;fontSize=16;align=center;fillColor=#f5f5f5;strokeColor=#666666;" vertex="1" parent="1">
          <mxGeometry x="1440" y="230" width="275" height="40" as="geometry" />
        </mxCell>
        <mxCell id="w0nPLynQn5txn0c__vby-55" value="CSO" style="whiteSpace=wrap;html=1;rounded=1;shadow=1;strokeWidth=1;fontSize=16;align=center;fillColor=#f5f5f5;strokeColor=#666666;" vertex="1" parent="1">
          <mxGeometry x="1440" y="281" width="275" height="40" as="geometry" />
        </mxCell>
        <mxCell id="w0nPLynQn5txn0c__vby-56" value="CSO" style="whiteSpace=wrap;html=1;rounded=1;shadow=1;strokeWidth=1;fontSize=16;align=center;fillColor=#f5f5f5;strokeColor=#666666;" vertex="1" parent="1">
          <mxGeometry x="1110" y="160" width="275" height="40" as="geometry" />
        </mxCell>
        <mxCell id="w0nPLynQn5txn0c__vby-57" value="DB on teory hidden&lt;br&gt;" style="text;html=1;strokeColor=none;fillColor=none;align=center;verticalAlign=middle;whiteSpace=wrap;rounded=0;" vertex="1" parent="1">
          <mxGeometry x="1217.5" y="90" width="60" height="30" as="geometry" />
        </mxCell>
        <mxCell id="w0nPLynQn5txn0c__vby-58" value="CSO" style="whiteSpace=wrap;html=1;rounded=1;shadow=1;strokeWidth=1;fontSize=16;align=center;fillColor=#f5f5f5;strokeColor=#666666;" vertex="1" parent="1">
          <mxGeometry x="1450" y="110" width="275" height="40" as="geometry" />
        </mxCell>
        <mxCell id="w0nPLynQn5txn0c__vby-71" value="pandas" style="whiteSpace=wrap;html=1;rounded=1;shadow=1;strokeWidth=1;fontSize=16;align=center;fillColor=#f5f5f5;strokeColor=#666666;" vertex="1" parent="1">
          <mxGeometry x="480" y="239.5" width="275" height="40.5" as="geometry" />
        </mxCell>
        <mxCell id="w0nPLynQn5txn0c__vby-72" value="selenium" style="whiteSpace=wrap;html=1;rounded=1;shadow=1;strokeWidth=1;fontSize=16;align=center;fillColor=#f5f5f5;strokeColor=#666666;" vertex="1" parent="1">
          <mxGeometry x="480" y="289.5" width="275" height="40" as="geometry" />
        </mxCell>
        <mxCell id="w0nPLynQn5txn0c__vby-73" value="CSO" style="whiteSpace=wrap;html=1;rounded=1;shadow=1;strokeWidth=1;fontSize=16;align=center;fillColor=#f5f5f5;strokeColor=#666666;" vertex="1" parent="1">
          <mxGeometry x="480" y="338.5" width="275" height="40" as="geometry" />
        </mxCell>
        <mxCell id="w0nPLynQn5txn0c__vby-74" value="CSO" style="whiteSpace=wrap;html=1;rounded=1;shadow=1;strokeWidth=1;fontSize=16;align=center;fillColor=#f5f5f5;strokeColor=#666666;" vertex="1" parent="1">
          <mxGeometry x="480" y="389.5" width="275" height="40" as="geometry" />
        </mxCell>
        <mxCell id="w0nPLynQn5txn0c__vby-75" value="Packages" style="whiteSpace=wrap;html=1;rounded=1;shadow=1;strokeWidth=1;fontSize=16;align=center;fillColor=#f5f5f5;strokeColor=#666666;" vertex="1" parent="1">
          <mxGeometry x="480" y="440.5" width="275" height="40" as="geometry" />
        </mxCell>
      </root>
    </mxGraphModel>
  </diagram>
</mxfile>
